<?xml version="1.0" encoding="utf-8"?>
<svg viewBox="253.685 7.233 500 500" xmlns="http://www.w3.org/2000/svg" xmlns:bx="https://boxy-svg.com">
  <rect style="fill: rgb(6, 198, 159); stroke: rgb(6, 198, 159);" transform="matrix(0.743145, -0.66913, 0.66913, 0.743145, -36.582912, 398.146759)" x="365" y="113.155" width="270.932" height="270.9" rx="42" ry="42" bx:origin="0.524117 0.5"/>
  <rect style="fill-rule: evenodd; paint-order: fill; fill: rgb(255, 255, 255); stroke: rgba(0, 0, 0, 0);" x="459.806" y="69.402" width="79.555" height="77.329" rx="38.7" ry="38.7" transform="matrix(-0.951229, 0.308487, -0.308487, -0.951229, 1015.926453, 84.008461)"/>
  <rect style="fill-rule: evenodd; paint-order: fill; fill: rgb(255, 255, 255); stroke: rgba(0, 0, 0, 0);" x="459.806" y="69.402" width="79.555" height="77.329" rx="38.7" ry="38.7" transform="matrix(-0.951229, 0.308487, -0.308487, -0.951229, 1002.853088, 312.380585)"/>
  <rect style="fill-rule: evenodd; paint-order: fill; fill: rgb(255, 255, 255); stroke: rgba(0, 0, 0, 0);" x="459.806" y="69.402" width="79.555" height="77.329" rx="38.7" ry="38.7" transform="matrix(-0.951229, 0.308487, -0.308487, -0.951229, 892.143616, 188.875793)"/>
  <rect style="fill-rule: evenodd; paint-order: fill; fill: rgb(255, 255, 255); stroke: rgba(0, 0, 0, 0);" x="459.806" y="69.402" width="79.555" height="77.329" rx="38.7" ry="38.7" transform="matrix(-0.951229, 0.308487, -0.308487, -0.951229, 1126.914185, 203.340302)"/>
</svg>